<svg version="1.1" xmlns="http://www.w3.org/2000/svg" xmlns:xlink="http://www.w3.org/1999/xlink" width="32px" height="32px" viewBox="0,0,256,256"><g fill-opacity="0.83137" fill="#000000" fill-rule="nonzero" stroke="none" stroke-width="1" stroke-linecap="butt" stroke-linejoin="miter" stroke-miterlimit="10" stroke-dasharray="" stroke-dashoffset="0" font-family="none" font-weight="none" font-size="none" text-anchor="none" style="mix-blend-mode: normal"><g transform="scale(8,8)"><path d="M16,5c-3.85547,0 -7,3.14453 -7,7c0,2.41016 1.23047,4.55078 3.09375,5.8125c-3.56641,1.53125 -6.09375,5.07031 -6.09375,9.1875h2c0,-2.89062 1.52734,-5.40625 3.8125,-6.8125c0.67188,1.64844 2.30859,2.8125 4.1875,2.8125c1.87891,0 3.51563,-1.16406 4.1875,-2.8125c2.28516,1.40625 3.8125,3.92188 3.8125,6.8125h2c0,-4.11719 -2.52734,-7.65625 -6.09375,-9.1875c1.86328,-1.26172 3.09375,-3.40234 3.09375,-5.8125c0,-3.85547 -3.14453,-7 -7,-7zM16,7c2.77344,0 5,2.22656 5,5c0,2.77344 -2.22656,5 -5,5c-2.77344,0 -5,-2.22656 -5,-5c0,-2.77344 2.22656,-5 5,-5zM16,19c0.82031,0 1.60156,0.11719 2.34375,0.34375c-0.34766,0.96484 -1.25391,1.65625 -2.34375,1.65625c-1.08984,0 -1.99609,-0.69141 -2.34375,-1.65625c0.74219,-0.22656 1.52344,-0.34375 2.34375,-0.34375z"></path></g></g></svg>